<?xml version="1.0"?>
<svg xmlns="http://www.w3.org/2000/svg" xmlns:xlink="http://www.w3.org/1999/xlink" xmlns:svgjs="http://svgjs.com/svgjs" version="1.1" width="512" height="512" x="0" y="0" viewBox="0 0 510.285 510.285" style="enable-background:new 0 0 512 512" xml:space="preserve" class=""><g><g xmlns="http://www.w3.org/2000/svg"><path d="m443.785 314.142h-115.296c45.857-59.002 75.098-119.625 74.026-160.056.001-92.606-74.93-147.944-147.372-147.944s-147.373 55.338-147.373 147.944c-1.106 40.393 28.185 101.096 74.027 160.056h-115.297l-66.5 190h510.285zm-21.285 30 19.744 56.41-163.327-27.605c6.723-7.26 15.568-17.1 25.446-28.805zm-284.731-190.055c0-73.828 59.678-117.944 117.373-117.944 73.47 0 117.373 59.968 117.373 117.944 3.209 52.833-72.592 154.456-117.373 200.346-44.842-45.965-120.579-147.52-117.373-200.346zm95.776 221.2-88.329 28.174-39.905-59.318h100.612c10.988 13.02 20.687 23.72 27.622 31.144zm-152.136-12.929 75.201 111.785h-114.326zm111.357 111.784-30.109-44.756 93.575-29.847 197.329 33.351 14.439 41.252z" fill="#ff9100" data-original="#000000" style="" class=""/><path d="m255.142 216.651c34.813 0 63.136-28.322 63.136-63.135-3.468-83.758-122.816-83.734-126.272 0 0 34.812 28.323 63.135 63.136 63.135zm0-96.271c18.271 0 33.136 14.865 33.136 33.136-1.82 43.958-64.458 43.946-66.272 0 0-18.272 14.865-33.136 33.136-33.136z" fill="#ff9100" data-original="#000000" style="" class=""/></g></g></svg>
