<svg width="208" height="198" viewBox="0 0 208 198" fill="none" xmlns="http://www.w3.org/2000/svg">
<path d="M119.461 1.88337L103.792 0.367C101.268 0.122704 98.7284 0.071662 96.1962 0.214319C76.8634 1.30349 59.916 13.5033 52.7479 31.4911L42.2489 57.8377C39.4343 64.9008 35.5121 71.4702 30.63 77.2989L8.26022 104.006C-2.67076 117.056 -1.92477 136.268 9.9852 148.432C11.6568 150.139 13.1387 152.022 14.4051 154.048L14.8989 154.838C19.8247 162.72 27.2424 168.729 35.9741 171.912L64.8747 182.449C68.6079 183.81 72.1407 185.668 75.3778 187.972L79.5675 190.955C91.8889 199.726 108.328 200.044 120.979 191.755C126.238 188.309 130.524 183.571 133.427 177.994L148.757 148.536C152.571 141.207 157.279 134.379 162.773 128.207L191 96.5L195.657 92.2941C210.144 79.209 211.121 56.7997 197.828 42.5033C196.28 40.8384 194.573 39.3284 192.732 37.9945L168.498 20.4377C154.094 10.0017 137.166 3.59676 119.461 1.88337Z" fill="url(#paint0_linear)"/>
<defs>
<linearGradient id="paint0_linear" x1="105.5" y1="5.30364e-09" x2="105.5" y2="205.5" gradientUnits="userSpaceOnUse">
<stop stop-color="#6813CC"/>
<stop offset="1" stop-color="#0657E8"/>
</linearGradient>
</defs>
</svg>
