<?xml version="1.0"?>
<svg xmlns="http://www.w3.org/2000/svg" xmlns:xlink="http://www.w3.org/1999/xlink" xmlns:svgjs="http://svgjs.com/svgjs" version="1.1" width="18" height="18" x="0" y="0" viewBox="0 0 128 128" style="enable-background:new 0 0 512 512" xml:space="preserve" class=""><g transform="matrix(-1,0,0,1,128.01239603594877,0)"><path xmlns="http://www.w3.org/2000/svg" d="m21.113 91.228h52.818a6.766 6.766 0 0 1 6.769 6.766v6.12a0 0 0 0 1 0 0h-66.353a0 0 0 0 1 0 0v-6.12a6.766 6.766 0 0 1 6.766-6.766z" fill="#f39b00" data-original="#bf9a71" style="" class=""/><g xmlns="http://www.w3.org/2000/svg" fill="#d0aa79"><path d="m80.692 97.989v6.123h-3.553v-5.585a3.951 3.951 0 0 0 -3.947-3.947h-57.913a6.742 6.742 0 0 1 5.834-3.356h52.813a6.765 6.765 0 0 1 6.766 6.765z" fill="#feae22" data-original="#d0aa79" style="" class=""/><path d="m85.56 104.114h-76.076a3.353 3.353 0 0 0 0 6.706h76.076a3.353 3.353 0 1 0 0-6.706z" fill="#feae22" data-original="#d0aa79" style="" class=""/><path d="m40.345 24.877h30.025v43.608h-30.025z" transform="matrix(.942 .336 -.336 .942 18.902 -15.885)" fill="#feae22" data-original="#d0aa79" style="" class=""/></g><g xmlns="http://www.w3.org/2000/svg" opacity=".5"><path d="m45.181 48.158h43.609v5.336h-43.609z" fill="#f39b00" transform="matrix(.336 -.942 .942 .336 -3.392 96.841)" data-original="#bf9a71" style="" class=""/></g><rect xmlns="http://www.w3.org/2000/svg" fill="#feae22" height="40.692" rx="1.891" transform="matrix(.336 -.942 .942 .336 12.946 77.528)" width="12.936" x="54.989" y="9.236" data-original="#d0aa79" style="" class=""/><g xmlns="http://www.w3.org/2000/svg" opacity=".5"><path d="m82.159 32.114-3.075 8.62a1.9 1.9 0 0 1 -2.413 1.144l-34.771-12.405a1.9 1.9 0 0 1 -1.144-2.413l.749-2.1 32.437 11.573a1.9 1.9 0 0 0 2.413-1.144l2.33-6.532 2.334.832a1.9 1.9 0 0 1 1.14 2.425z" fill="#f39b00" data-original="#bf9a71" style="" class=""/></g><rect xmlns="http://www.w3.org/2000/svg" fill="#feae22" height="40.692" rx="1.891" transform="matrix(.336 -.942 .942 .336 -31.417 89.873)" width="12.935" x="41.564" y="46.872" data-original="#d0aa79" style="" class=""/><g xmlns="http://www.w3.org/2000/svg" opacity=".5"><path d="m68.736 69.742-3.075 8.62a1.9 1.9 0 0 1 -2.417 1.156l-34.775-12.4a1.9 1.9 0 0 1 -1.14-2.425l.494-1.383 32.762 11.682a1.88 1.88 0 0 0 2.415-1.144l2.581-7.236 2.013.718a1.9 1.9 0 0 1 1.142 2.412z" fill="#f39b00" data-original="#bf9a71" style="" class=""/></g><path xmlns="http://www.w3.org/2000/svg" d="m122.9 63.357-52.112-15.25-2.851 7.993 50.148 20.764a7.179 7.179 0 1 0 4.815-13.507z" fill="#feae22" data-original="#d0aa79" style="" class=""/><path xmlns="http://www.w3.org/2000/svg" d="m127.576 72.639a7.173 7.173 0 0 1 -9.486 4.231l-50.155-20.764 1.282-3.593 46.393 19.212a7.171 7.171 0 0 0 9.493-4.214 7 7 0 0 0 .409-2.708 7.139 7.139 0 0 1 2.064 7.836z" fill="#f39b00" data-original="#bf9a71" style="" class=""/><path xmlns="http://www.w3.org/2000/svg" d="m6.948 56.141a1.734 1.734 0 0 0 .09 2.45l8.021 7.451a1.734 1.734 0 0 0 2.36-2.541l-8.019-7.45a1.733 1.733 0 0 0 -2.452.09z" fill="#feae22" data-original="#ddb087" style="" class=""/><path xmlns="http://www.w3.org/2000/svg" d="m2.685 89.389a1.734 1.734 0 0 0 2.315.821l9.887-4.7a1.734 1.734 0 0 0 -1.489-3.132l-9.887 4.7a1.735 1.735 0 0 0 -.826 2.311z" fill="#feae22" data-original="#ddb087" style="" class=""/><path xmlns="http://www.w3.org/2000/svg" d="m0 73.516a1.734 1.734 0 0 0 1.659 1.806l10.938.459a1.734 1.734 0 1 0 .145-3.464l-10.937-.46a1.734 1.734 0 0 0 -1.805 1.659z" fill="#feae22" data-original="#ddb087" style="" class=""/></g></svg>
